<svg width="1200" height="900" viewBox="0 0 1200 900" fill="none" xmlns="http://www.w3.org/2000/svg">
  <rect width="1200" height="900" fill="#F3EEE6"/>
  <rect x="76" y="88" width="1048" height="724" rx="34" fill="#E1D7CA"/>
  <rect x="128" y="148" width="550" height="612" rx="28" fill="#FBF8F3"/>
  <rect x="726" y="148" width="346" height="286" rx="24" fill="#D4C6B4"/>
  <rect x="726" y="474" width="346" height="286" rx="24" fill="#C6B49E"/>
  <rect x="188" y="218" width="430" height="412" rx="26" fill="#D9CEC2"/>
  <rect x="226" y="256" width="354" height="336" rx="18" fill="#414B54"/>
  <circle cx="403" cy="652" r="40" fill="#B69A73"/>
  <circle cx="403" cy="652" r="15" fill="#F6F0E7"/>
  <rect x="795" y="211" width="210" height="158" rx="18" fill="#F5EFE7"/>
  <circle cx="900" cy="290" r="54" stroke="#A88C65" stroke-width="16"/>
  <circle cx="900" cy="290" r="11" fill="#A88C65"/>
  <rect x="805" y="522" width="188" height="190" rx="18" fill="#EFE7DC"/>
  <rect x="848" y="552" width="102" height="128" rx="16" fill="#8C9AA5"/>
  <rect x="882" y="516" width="34" height="24" rx="10" fill="#8C9AA5"/>
  <path d="M268 703H945" stroke="#B69A73" stroke-width="12" stroke-linecap="round"/>
</svg>